<?xml version="1.0" encoding="UTF-8" standalone="no"?>
<!-- Svg Vector Icons : https://www.onlinewebfonts.com/icon/464922 -->

<svg
   xmlns:dc="http://purl.org/dc/elements/1.1/"
   xmlns:cc="http://creativecommons.org/ns#"
   xmlns:rdf="http://www.w3.org/1999/02/22-rdf-syntax-ns#"
   xmlns:svg="http://www.w3.org/2000/svg"
   xmlns="http://www.w3.org/2000/svg"
   xmlns:xlink="http://www.w3.org/1999/xlink"
   xmlns:sodipodi="http://sodipodi.sourceforge.net/DTD/sodipodi-0.dtd"
   xmlns:inkscape="http://www.inkscape.org/namespaces/inkscape"
   version="1.1"
   x="0px"
   y="0px"
   viewBox="0 1.77 32 32.000001"
   enable-background="new 0 0 1000 1000"
   xml:space="preserve"
   id="svg16"
   sodipodi:docname="highlighterIcon.svg"
   width="32"
   height="32"
   inkscape:version="0.92.4 (5da689c313, 2019-01-14)"
   inkscape:export-filename="highlighterIcon.png"
   inkscape:export-xdpi="384"
   inkscape:export-ydpi="384"><defs
   id="defs20"><linearGradient
     inkscape:collect="always"
     id="linearGradient839"><stop
       style="stop-color:#eded26;stop-opacity:1"
       offset="0"
       id="stop835" /><stop
       style="stop-color:#eded26;stop-opacity:0"
       offset="1"
       id="stop837" /></linearGradient><linearGradient
     inkscape:collect="always"
     xlink:href="#linearGradient839"
     id="linearGradient841"
     x1="1470"
     y1="-4447.8501"
     x2="8810.0996"
     y2="-4447.8501"
     gradientUnits="userSpaceOnUse"
     gradientTransform="matrix(0.17801403,0,0,-0.14921182,-452.14245,458.84869)" /></defs><sodipodi:namedview
   pagecolor="#eff1f0"
   bordercolor="#666666"
   borderopacity="1"
   objecttolerance="10"
   gridtolerance="10"
   guidetolerance="10"
   inkscape:pageopacity="0"
   inkscape:pageshadow="2"
   inkscape:window-width="1920"
   inkscape:window-height="1137"
   id="namedview18"
   showgrid="false"
   fit-margin-top="0"
   fit-margin-left="0"
   fit-margin-right="0"
   fit-margin-bottom="0"
   inkscape:zoom="15.104"
   inkscape:cx="-8.0862008"
   inkscape:cy="8.1027007"
   inkscape:window-x="1672"
   inkscape:window-y="-8"
   inkscape:window-maximized="1"
   inkscape:current-layer="g14"
   inkscape:pagecheckerboard="true"
   showguides="true"
   viewbox-height="33.82"
   viewbox-y="1.77"
   viewbox-width="33.82"
   inkscape:guide-bbox="true"><sodipodi:guide
     position="-358.04771,564.78657"
     orientation="0,1"
     id="guide971"
     inkscape:locked="false" /></sodipodi:namedview>
<metadata
   id="metadata2"> Svg Vector Icons : http://www.onlinewebfonts.com/icon <rdf:RDF><cc:Work
     rdf:about=""><dc:format>image/svg+xml</dc:format><dc:type
       rdf:resource="http://purl.org/dc/dcmitype/StillImage" /><dc:title /></cc:Work></rdf:RDF></metadata>
<g
   id="g14"
   transform="matrix(0.02449028,0,0,0.02449028,4.6644631,5.02959)"><g
     inkscape:groupmode="layer"
     id="layer1"
     inkscape:label="Below"
     style="display:inline" /><path
     style="fill:#007acc;fill-opacity:1;stroke-width:0.12954289"
     inkscape:connector-curvature="0"
     id="path4"
     d="m 888.47239,-131.80699 c -24.62001,2.87927 -42.81777,12.66049 -80.04782,42.412991 -19.65873,15.66721 -97.48973,79.26372 -172.92955,140.724507 C 560.03905,113.07594 455.69378,208.43498 400.52683,253.69244 345.06307,298.92006 199.51654,423.93658 199.45231,425.07476 c -0.0482,0.85363 11.94947,15.18039 26.65414,31.65811 l 26.76663,29.6663 9.55968,-7.99804 C 267.81381,473.86516 449.00907,311.33463 545.53353,234.00157 642.34247,156.68463 754.94817,66.609429 795.7694,33.919659 836.87825,0.96072556 875.32361,-29.86499 881.56062,-34.6252 c 8.64184,-6.908036 13.57782,-8.614584 22.92879,-8.086854 11.62734,0.65619 12.97287,1.873851 64.88815,59.986393 52.18674,58.12776 52.97624,59.31412 52.30394,71.2262 -0.5285,9.36405 -2.7917,14.062961 -10.6153,21.873591 -5.729,5.64513 -58.17824,58.15319 -116.94245,116.57183 C 835.34734,285.35091 732.57457,387.64551 665.65806,454.41407 598.7576,520.89806 443.10247,674.36021 438.59183,678.6469 l -7.5197,7.25681 26.466,29.93479 c 14.71765,16.47844 27.60409,29.99904 28.45771,30.04721 1.70721,0.0964 155.14646,-149.50754 284.02062,-275.64329 18.9657,-18.56083 90.93053,-89.02778 159.88703,-156.53756 163.17991,-159.47871 157.73461,-153.80454 166.62041,-170.09266 10.7721,-19.59415 15.8983,-44.904525 13.7449,-67.213241 -3.4728,-34.333198 -10.0167,-44.368899 -71.2302,-113.827254 -31.0182,-35.031401 -62.14764,-68.083875 -69.26364,-73.039665 -21.86787,-15.9997 -54.39021,-24.37451 -81.30257,-21.33903 z"
     sodipodi:nodetypes="cccccccccccscscccccccccccccc" /><g
     id="g843"
     transform="translate(-81.665052,83.910839)"><path
       d="m 209.69833,396.28213 c -67.11398,55.09288 -75.01767,69.15288 -65.8744,118.883 12.2657,64.98327 3.61871,102.33036 -32.60539,144.37504 l -13.965554,15.71604 59.142964,65.91613 58.84239,66.1846 17.18732,-12.1088 c 45.8528,-31.26403 81.94025,-35.48137 145.71818,-16.51963 49.7948,14.76014 64.35085,9.04222 125.14201,-50.11835 24.0776,-23.38446 43.99326,-43.60438 44.34134,-44.71355 0.64932,-1.3906 -64.29239,-75.60063 -144.01916,-164.86565 L 258.57927,356.65146 Z"
       id="path6"
       inkscape:connector-curvature="0"
       style="fill:#007acc;fill-opacity:1;stroke-width:0.12954289" /><path
       d="m -17.744416,777.13338 c -42.851263,38.5437 -79.78142,72.86736 -81.667693,76.17333 -8.805471,14.86548 -3.694971,40.18258 9.91733,51.18804 3.004594,2.16771 27.742468,12.37382 54.755922,22.72143 81.613317,30.77639 83.908831,30.33493 161.250937,-39.54308 l 53.31518,-47.61947 -59.66391,-66.80188 -59.408314,-66.502 z"
       id="path8"
       inkscape:connector-curvature="0"
       style="fill:#eded26;fill-opacity:1;stroke-width:0.12954289" /></g><path
     style="fill:url(#linearGradient841);fill-opacity:1;stroke-width:0.16297789"
     inkscape:connector-curvature="0"
     id="path10"
     d="m -97.200268,1073.4672 c -20.685232,4.2524 -34.338902,12.4292 -63.996032,37.6162 -25.36701,21.2627 -29.26551,26.1718 -29.26551,36.3034 0,7.5202 3.11523,14.0706 8.58026,18.9647 l 8.97192,7.192 h 599.8539 599.85403 l 15.6116,-7.192 c 8.5981,-3.9243 28.8917,-17.9949 44.8773,-31.7374 24.9755,-21.2625 28.8918,-26.1717 28.8918,-36.3032 0,-7.5202 -3.1332,-14.0706 -8.5804,-18.9649 l -8.9719,-7.1919 -592.05682,-0.6565 c -325.49858,0.014 -597.130223,0.6714 -603.770148,1.9696 z" /></g>
</svg>