<?xml version="1.0" encoding="UTF-8" standalone="no"?>
<!-- Svg Vector Icons : https://www.onlinewebfonts.com/icon/464922 -->

<svg
   xmlns:dc="http://purl.org/dc/elements/1.1/"
   xmlns:cc="http://creativecommons.org/ns#"
   xmlns:rdf="http://www.w3.org/1999/02/22-rdf-syntax-ns#"
   xmlns:svg="http://www.w3.org/2000/svg"
   xmlns="http://www.w3.org/2000/svg"
   xmlns:xlink="http://www.w3.org/1999/xlink"
   xmlns:sodipodi="http://sodipodi.sourceforge.net/DTD/sodipodi-0.dtd"
   xmlns:inkscape="http://www.inkscape.org/namespaces/inkscape"
   version="1.1"
   x="0px"
   y="0px"
   viewBox="0 1.77 32 32.000001"
   enable-background="new 0 0 1000 1000"
   xml:space="preserve"
   id="svg16"
   sodipodi:docname="twitchhighlighterIcon.svg"
   width="32"
   height="32"
   inkscape:version="0.92.4 (5da689c313, 2019-01-14)"
   inkscape:export-filename="twitchHighlighterIcon.png"
   inkscape:export-xdpi="384"
   inkscape:export-ydpi="384"><defs
   id="defs20"><linearGradient
     inkscape:collect="always"
     id="linearGradient839"><stop
       style="stop-color:#eded26;stop-opacity:1"
       offset="0"
       id="stop835" /><stop
       style="stop-color:#eded26;stop-opacity:0"
       offset="1"
       id="stop837" /></linearGradient><linearGradient
     inkscape:collect="always"
     xlink:href="#linearGradient839"
     id="linearGradient841"
     x1="1470"
     y1="-4447.8501"
     x2="8810.0996"
     y2="-4447.8501"
     gradientUnits="userSpaceOnUse"
     gradientTransform="matrix(0.11139459,0,0,-0.11139609,113.3567,639.97848)" /></defs><sodipodi:namedview
   pagecolor="#eff1f0"
   bordercolor="#666666"
   borderopacity="1"
   objecttolerance="10"
   gridtolerance="10"
   guidetolerance="10"
   inkscape:pageopacity="0"
   inkscape:pageshadow="2"
   inkscape:window-width="1920"
   inkscape:window-height="1137"
   id="namedview18"
   showgrid="false"
   fit-margin-top="0"
   fit-margin-left="0"
   fit-margin-right="0"
   fit-margin-bottom="0"
   inkscape:zoom="7.552"
   inkscape:cx="-7.1296658"
   inkscape:cy="-9.2955689"
   inkscape:window-x="1672"
   inkscape:window-y="-8"
   inkscape:window-maximized="1"
   inkscape:current-layer="g14"
   inkscape:pagecheckerboard="true"
   showguides="true"
   viewbox-height="33.82"
   viewbox-y="1.77"
   viewbox-width="33.82"
   inkscape:guide-bbox="true"><sodipodi:guide
     position="-358.04771,564.78657"
     orientation="0,1"
     id="guide971"
     inkscape:locked="false" /></sodipodi:namedview>
<metadata
   id="metadata2"> Svg Vector Icons : http://www.onlinewebfonts.com/icon <rdf:RDF><cc:Work
     rdf:about=""><dc:format>image/svg+xml</dc:format><dc:type
       rdf:resource="http://purl.org/dc/dcmitype/StillImage" /><dc:title></dc:title></cc:Work></rdf:RDF></metadata>
<g
   id="g14"
   transform="matrix(0.02449028,0,0,0.02449028,4.6644631,5.02959)"><g
     inkscape:groupmode="layer"
     id="layer1"
     inkscape:label="Below"
     style="display:inline" /><path
     style="fill:#007acc;fill-opacity:1;stroke-width:0.09952004"
     inkscape:connector-curvature="0"
     id="path4"
     d="m 928.54129,171.41139 c -18.61953,3.99355 -31.82518,12.79828 -58.13321,38.2617 -13.89467,13.41257 -68.79103,67.71382 -122.01405,120.2077 -53.21466,52.71275 -128.7352,127.229 -167.63288,165.85561 -39.12684,38.62538 -71.07854,70.64031 -71.04484,71.51545 0.0253,0.65635 10.24342,10.74023 22.68838,22.27214 l 22.62947,20.74066 6.72912,-6.81242 c 3.78528,-3.86061 62.92856,-61.15388 131.12185,-127.32092 68.41202,-66.17541 147.97682,-143.25764 176.8176,-171.22876 29.04117,-28.1979 56.20055,-54.57053 60.62415,-58.66492 6.10648,-5.91201 9.75727,-7.57633 16.94716,-7.85317 8.94018,-0.34424 10.05783,0.4891 53.99056,41.15506 44.1415,40.65784 44.8316,41.50771 45.1842,50.66682 0.2773,7.19995 -1.1117,10.9583 -6.5267,17.50106 -3.9707,4.7342 -40.26231,48.70821 -80.9534,97.66206 -40.70145,48.94427 -111.85698,134.65623 -158.17527,190.5892 -46.32672,55.71418 -86.59712,104.2136 -89.73487,107.82023 l -5.22291,6.09709 22.41909,20.96787 c 12.45494,11.53152 23.29417,20.93418 23.95051,20.90891 1.31267,-0.0505 40.16915,-45.43798 129.55183,-151.28263 13.15409,-15.57514 63.06414,-74.70395 110.88864,-131.35224 113.19298,-133.8412 109.44138,-129.10544 115.05188,-142.20896 6.8125,-15.76919 8.8912,-35.49923 5.621,-52.40393 -5.1543,-26.00485 -10.8892,-33.20384 -62.7588,-81.87031 -26.2713,-24.53444 -52.48385,-47.54732 -58.28666,-50.81964 -17.88849,-10.64509 -43.37053,-14.68348 -63.73185,-10.40366 z" /><path
     style="fill:#007acc;fill-opacity:1;stroke-width:0.09952004"
     inkscape:connector-curvature="0"
     id="path6"
     d="m 448.01507,626.39646 c -47.31891,47.01795 -52.34044,58.34597 -41.72909,95.71355 14.10927,48.80578 10.2138,77.99753 -14.43043,112.78863 l -9.53706,13.03564 50.02823,46.1081 49.81789,46.33529 12.26351,-10.51131 c 32.7926,-27.24686 60.0849,-33.09819 110.24117,-23.23744 39.15642,7.66494 49.87262,2.23276 92.05993,-47.43601 16.7126,-19.63616 30.47248,-36.54928 30.65797,-37.42289 0.39541,-1.11076 -54.67115,-53.13996 -122.14062,-115.60714 L 482.51474,592.53056 Z" /><path
     style="fill:#eded26;fill-opacity:1;stroke-width:0.09952004"
     inkscape:connector-curvature="0"
     id="path8"
     d="m 301.78335,934.21653 c -29.96735,32.59585 -55.7134,61.5334 -56.91543,64.19901 -5.65259,12.00966 0.0981,30.99996 11.30943,38.42626 2.45561,1.4392 22.11746,7.4446 43.52994,13.3926 64.65624,17.5986 66.37969,17.094 120.44506,-41.9757 l 37.30959,-40.2983 -50.49109,-46.7476 -50.2738,-46.53685 z" /><path
     style="fill:url(#linearGradient841);fill-opacity:1;stroke-width:0.11139534"
     inkscape:connector-curvature="0"
     id="path10"
     d="m 335.46638,1098.8302 c -12.94405,3.1747 -21.48801,9.2792 -40.04635,28.0829 -15.87373,15.8739 -18.31327,19.5389 -18.31327,27.1027 0,5.6143 1.9494,10.5046 5.36921,14.1584 l 5.6143,5.3693 H 663.45663 1038.823 l 9.7692,-5.3693 c 5.3804,-2.9297 18.0794,-13.4343 28.0826,-23.694 15.6287,-15.8738 18.0794,-19.5388 18.0794,-27.1026 0,-5.6143 -1.9606,-10.5046 -5.3693,-14.1585 l -5.6143,-5.3692 -370.48721,-0.4902 c -203.68497,0.011 -373.66199,0.5013 -377.81701,1.4705 z" /><path
     style="fill:#6441a4;fill-opacity:1;stroke-width:5.68569136"
     id="path8-1"
     d="M -139.29093,-133.09796 -190.46182,-2.3262454 V 532.13243 H -8.5209215 v 96.65739 H 93.820856 L 190.47694,532.13243 H 338.30392 L 537.30175,333.13183 V -133.09796 Z M 469.07396,299.01751 355.36087,412.7321 H 173.41998 L 76.763892,509.38947 V 412.7321 H -76.748777 V -64.869258 H 469.07396 Z M 355.36087,65.90252 V 264.90306 H 287.13303 V 65.90252 Z m -181.94089,0 V 264.90306 H 105.19212 V 65.90252 Z"
     class="cls-1"
     inkscape:connector-curvature="0" /></g>
</svg>