@@ -0,0 +1,97 @@
<?xml version="1.0" encoding="UTF-8" standalone="no"?>
<!-- Svg Vector Icons : http://www.onlinewebfonts.com/icon -->

<svg
   xmlns:dc="http://purl.org/dc/elements/1.1/"
   xmlns:cc="http://creativecommons.org/ns#"
   xmlns:rdf="http://www.w3.org/1999/02/22-rdf-syntax-ns#"
   xmlns:svg="http://www.w3.org/2000/svg"
   xmlns="http://www.w3.org/2000/svg"
   xmlns:xlink="http://www.w3.org/1999/xlink"
   xmlns:sodipodi="http://sodipodi.sourceforge.net/DTD/sodipodi-0.dtd"
   xmlns:inkscape="http://www.inkscape.org/namespaces/inkscape"
   version="1.1"
   x="0px"
   y="0px"
   viewBox="0 0 49.999999 40"
   enable-background="new 0 0 1000 1000"
   xml:space="preserve"
   id="svg16"
   sodipodi:docname="twitchHighlighterIcon.svg"
   width="50"
   height="40"
   inkscape:version="0.92.4 (5da689c313, 2019-01-14)"><defs
   id="defs20"><linearGradient
     inkscape:collect="always"
     id="linearGradient839"><stop
       style="stop-color:#ccff00;stop-opacity:1;"
       offset="0"
       id="stop835" /><stop
       style="stop-color:#ccff00;stop-opacity:0;"
       offset="1"
       id="stop837" /></linearGradient><linearGradient
     inkscape:collect="always"
     xlink:href="#linearGradient839"
     id="linearGradient841"
     x1="1470"
     y1="-4447.85"
     x2="8810.1"
     y2="-4447.85"
     gradientUnits="userSpaceOnUse" /></defs><sodipodi:namedview
   pagecolor="#ffffff"
   bordercolor="#666666"
   borderopacity="1"
   objecttolerance="10"
   gridtolerance="10"
   guidetolerance="10"
   inkscape:pageopacity="0"
   inkscape:pageshadow="2"
   inkscape:window-width="2722"
   inkscape:window-height="1672"
   id="namedview18"
   showgrid="false"
   fit-margin-top="0"
   fit-margin-left="0"
   fit-margin-right="0"
   fit-margin-bottom="0"
   inkscape:zoom="30.208"
   inkscape:cx="20.510458"
   inkscape:cy="20.835749"
   inkscape:window-x="0"
   inkscape:window-y="0"
   inkscape:window-maximized="0"
   inkscape:current-layer="g12" />
<metadata
   id="metadata2"> Svg Vector Icons : http://www.onlinewebfonts.com/icon <rdf:RDF><cc:Work
     rdf:about=""><dc:format>image/svg+xml</dc:format><dc:type
       rdf:resource="http://purl.org/dc/dcmitype/StillImage" /><dc:title /></cc:Work></rdf:RDF></metadata>
<g
   id="g14"
   transform="matrix(0.02449028,0,0,0.02449028,12.754963,7.7551126)"><g
     transform="matrix(0.1,0,0,-0.1,0,511)"
     id="g12"><g
       id="g837"
       transform="matrix(1,0,0,1.0000135,2394.1883,-1281.8723)"><g
         id="g825"><path
           d="M 7700.7,4999 C 7512.2,4966.1 7376.2,4882.8 7102.2,4637.3 6957.5,4508 6385.3,3984 5830.6,3477.5 5275.9,2968.8 4488.8,2249.8 4083.3,1877 c -407.8,-372.7 -741,-681.8 -741,-690.6 0,-6.6 98.7,-111.8 219.2,-232.4 l 219.2,-217 70.2,65.8 c 39.5,37.3 655.5,589.7 1365.8,1227.7 712.5,638 1541.2,1381.2 1841.6,1650.9 302.5,271.9 585.4,526.2 631.4,565.6 63.6,57 100.9,72.3 173.2,72.3 89.9,0 100.8,-8.8 526.2,-434.1 427.5,-425.3 434.1,-434.1 434.1,-526.2 0,-72.4 -15.4,-109.6 -72.3,-173.2 -41.7,-46 -423.1,-473.5 -850.6,-949.3 C 7472.7,1760.8 6725.1,927.7 6238.4,384 5751.7,-157.5 5328.6,-628.9 5295.7,-663.9 l -54.8,-59.2 217,-219.2 c 120.6,-120.6 225.8,-219.2 232.4,-219.2 13.2,0 420.9,440.7 1359.3,1468.9 138.1,151.3 662.1,725.7 1164.2,1276 1188.3,1300.1 1148.8,1254 1210.2,1383.4 74.5,155.7 103,353 76.7,524 -41.7,263.1 -96.5,337.6 -598.5,846.3 -254.3,256.5 -508.6,497.7 -565.6,532.8 -175.5,113.8 -429.8,164.2 -635.9,129.1 z"
           id="path4"
           inkscape:connector-curvature="0"
           style="fill:#d7dae0;fill-opacity:1" /><path
           d="m 2699.9,616.4 c -493.3,-453.8 -548.1,-565.6 -456,-944.9 122.8,-495.5 72.4,-787.1 -188.5,-1126.9 l -100.8,-127.2 484.5,-482.3 482.3,-484.5 127.2,100.8 c 339.8,260.9 616.1,309.1 1115.9,190.7 390.2,-92.1 499.9,-41.7 942.7,440.7 175.4,190.7 320.1,355.2 322.3,363.9 4.4,11 -528.4,554.7 -1181.7,1208 L 3059.4,943.1 Z"
           id="path6"
           inkscape:connector-curvature="0"
           style="fill:#d7dae0;fill-opacity:1" /><path
           d="m 1112.6,-2417.8 c -313.5,-315.7 -583.2,-596.3 -596.3,-622.6 -61.4,-118.4 -11,-311.3 98.7,-390.2 24.1,-15.4 219.2,-83.3 431.9,-151.3 642.4,-201.7 659.9,-197.3 1225.6,374.9 l 390.2,390.2 -488.9,488.9 -486.8,486.7 z"
           id="path8"
           inkscape:connector-curvature="0"
           style="fill:#d4ff2a" /><path
           d="m 1993.9,-4119.1 c -116.2,-28.5 -192.9,-83.3 -359.5,-252.1 -142.5,-142.5 -164.4,-175.4 -164.4,-243.3 0,-50.4 17.5,-94.3 48.2,-127.1 l 50.4,-48.2 H 4938.3 8308 l 87.7,48.2 c 48.3,26.3 162.3,120.6 252.1,212.7 140.3,142.5 162.3,175.4 162.3,243.3 0,50.4 -17.6,94.3 -48.2,127.1 l -50.4,48.2 -3325.9,4.4 c -1828.5,-0.1 -3354.4,-4.5 -3391.7,-13.2 z"
           id="path10"
           inkscape:connector-curvature="0"
           style="fill:url(#linearGradient841);fill-opacity:1" /></g><path
         style="fill:#ffffff;fill-opacity:1;stroke-width:51.04065704"
         id="path8-1"
         d="m -3839.4404,7573.7133 -459.366,-1173.935 v -4797.822 h 1633.301 V 734.26527 h 918.732 l 867.69099,867.69103 H 447.97456 l 1786.42304,1786.423 v 4185.334 z m 5461.35,-3879.09 L 601.09656,2673.8103 H -1032.2044 l -867.691,-867.691 v 867.691 h -1378.098 v 4287.415 h 4899.903 z M 601.09656,5787.2903 V 4000.8673 H -11.391437 v 1786.423 z m -1633.30096,0 v -1786.423 h -612.488 v 1786.423 z"
         class="cls-1"
         inkscape:connector-curvature="0" /></g></g></g>
</svg>